<svg width="1002" height="181" viewBox="0 0 1002 181" fill="none" xmlns="http://www.w3.org/2000/svg">
<path d="M118.88 90.5533C135.196 90.5533 148.422 103.709 148.422 119.936C148.422 136.164 135.196 149.319 118.88 149.319H0.71582L0.715823 90.5533H118.88Z" fill="#131415"/>
<path d="M40.1039 12.1992C56.4191 12.1992 69.6452 25.3544 69.6452 41.5821C69.6452 57.8096 56.4191 70.965 40.1039 70.965H0.71582L0.715823 12.1992L40.1039 12.1992Z" fill="#131415"/>
<path d="M300.572 78.7814C308.481 77.4051 319.947 68.3585 319.947 51.6426C319.947 29.6166 304.723 15.0638 280.799 15.0638H215.552V146.826H280.997C310.457 146.826 323.705 131.683 323.705 110.247C323.705 91.5644 311.446 80.9447 300.572 79.5683V78.7814ZM242.442 37.8764H277.833C286.533 37.8764 293.849 43.9727 293.849 53.2157C293.849 63.4422 286.731 70.1284 276.054 70.1284H242.442V37.8764ZM242.442 124.013V91.3676H279.019C289.103 91.3676 296.221 97.6609 296.221 107.691C296.221 117.523 290.091 124.013 278.031 124.013H242.442Z" fill="#131415"/>
<path d="M434.113 48.6926H408.015V92.1543C408.015 116.147 398.325 125.98 383.498 125.98C371.436 125.98 363.527 116.737 363.527 102.971V48.6926H337.429V108.477C337.429 132.863 353.246 149.775 376.973 149.775C390.021 149.775 400.304 145.646 408.015 137.976V146.826H434.113V48.6926Z" fill="#131415"/>
<path d="M581.851 45.7424C566.033 45.7424 553.971 51.8389 545.864 61.8685C538.746 51.4456 526.687 45.7424 513.438 45.7424C500.588 45.7424 490.901 49.8724 483.98 56.7555V48.6925H457.879V146.826H483.98V99.6271C483.98 78.978 492.68 69.5385 506.518 69.5385C517.394 69.5385 525.896 77.6014 525.896 90.7776V146.826H551.994V99.6271C551.994 78.978 561.089 69.5385 574.93 69.5385C585.804 69.5385 594.305 77.6014 594.305 90.7776V146.826H620.209V85.4678C620.209 61.4752 602.412 45.7424 581.851 45.7424Z" fill="#131415"/>
<path d="M700.329 45.7424C686.883 45.7424 676.01 49.6756 667.705 56.559V48.6925H641.604V180.258H667.705V139.156C676.01 145.842 686.883 149.775 700.329 149.775C725.439 149.775 748.77 128.733 748.77 97.8575C748.77 66.9819 725.439 45.7424 700.329 45.7424ZM695.78 127.16C681.741 127.16 667.705 115.95 667.705 97.8575C667.705 79.7646 681.741 68.3583 695.78 68.3583C711.598 68.3583 723.462 79.7646 723.462 97.8575C723.462 115.95 711.598 127.16 695.78 127.16Z" fill="#131415"/>
<path d="M869.983 79.9152C867.88 77.1548 864.988 74.7888 861.308 72.8171C857.627 70.7139 853.618 69.6623 849.28 69.6623C845.468 69.6623 841.985 70.451 838.83 72.0284C835.676 73.6057 834.098 76.2347 834.098 79.9152C834.098 83.5958 835.807 86.2247 839.225 87.8021C842.774 89.248 847.9 90.7596 854.604 92.337C858.153 93.1257 861.702 94.1773 865.251 95.4917C868.932 96.8062 872.218 98.5808 875.11 100.815C878.133 102.919 880.565 105.613 882.405 108.899C884.245 112.054 885.166 115.932 885.166 120.532C885.166 126.316 884.048 131.245 881.814 135.32C879.711 139.264 876.819 142.484 873.138 144.982C869.589 147.479 865.383 149.254 860.519 150.305C855.787 151.488 850.858 152.08 845.731 152.08C838.37 152.08 831.206 150.765 824.24 148.136C817.273 145.376 811.489 141.498 806.889 136.503L822.465 121.913C825.094 125.33 828.512 128.156 832.718 130.391C836.924 132.626 841.591 133.743 846.717 133.743C848.426 133.743 850.135 133.546 851.844 133.151C853.684 132.757 855.327 132.166 856.773 131.377C858.35 130.457 859.599 129.274 860.519 127.828C861.439 126.382 861.899 124.607 861.899 122.504C861.899 118.561 860.059 115.735 856.379 114.026C852.83 112.317 847.44 110.608 840.211 108.899C836.662 108.111 833.178 107.125 829.761 105.942C826.474 104.627 823.517 102.984 820.888 101.013C818.259 98.9094 816.156 96.3462 814.578 93.3229C813.001 90.2996 812.212 86.5533 812.212 82.0841C812.212 76.8262 813.264 72.2913 815.367 68.4793C817.602 64.6673 820.493 61.5783 824.043 59.2123C827.592 56.7148 831.601 54.8745 836.07 53.6915C840.539 52.5084 845.14 51.9169 849.872 51.9169C856.707 51.9169 863.345 53.1 869.786 55.466C876.359 57.8321 881.551 61.4469 885.363 66.3104L869.983 79.9152Z" fill="#131415"/>
<path fill-rule="evenodd" clip-rule="evenodd" d="M869.697 82.8391L868.393 81.1273C866.495 78.6362 863.842 76.4435 860.363 74.58L860.339 74.5671L860.316 74.5536C856.945 72.6272 853.279 71.6623 849.28 71.6623C845.753 71.6623 842.58 72.3897 839.725 73.8172C838.435 74.462 837.561 75.2706 836.996 76.2121C836.428 77.1586 836.098 78.3645 836.098 79.9152C836.098 81.4371 836.448 82.6204 837.057 83.5574C837.662 84.4885 838.609 85.3081 840.023 85.9676C843.425 87.3491 848.416 88.8259 855.05 90.3873C858.683 91.1954 862.312 92.2709 865.935 93.6122C869.779 94.9862 873.236 96.8471 876.293 99.2023C879.547 101.475 882.166 104.384 884.142 107.907C886.195 111.434 887.166 115.676 887.166 120.532C887.166 126.567 886 131.841 883.573 136.272C881.321 140.491 878.216 143.95 874.275 146.627C870.488 149.289 866.041 151.154 860.973 152.253C856.084 153.473 851.002 154.08 845.731 154.08C838.126 154.08 830.723 152.721 823.534 150.008L823.518 150.002L823.503 149.996C816.286 147.136 810.242 143.097 805.418 137.858L804.074 136.4L822.707 118.946L824.05 120.693C826.488 123.862 829.676 126.51 833.656 128.625C837.552 130.694 841.892 131.743 846.717 131.743C848.271 131.743 849.829 131.564 851.394 131.203L851.409 131.199L851.425 131.196C853.092 130.839 854.541 130.313 855.79 129.635C857.098 128.867 858.099 127.906 858.832 126.754C859.506 125.695 859.899 124.314 859.899 122.504C859.899 120.853 859.518 119.555 858.843 118.518C858.166 117.478 857.106 116.569 855.536 115.84L855.524 115.834L855.511 115.828C852.162 114.216 846.946 112.547 839.764 110.849C836.145 110.044 832.592 109.038 829.106 107.832L829.062 107.816L829.018 107.799C825.581 106.424 822.468 104.697 819.688 102.613L819.663 102.594L819.638 102.574C816.79 100.295 814.509 97.5143 812.805 94.248C811.04 90.8643 810.212 86.7789 810.212 82.0841C810.212 76.5582 811.319 71.6766 813.616 67.5131L813.628 67.4903L813.642 67.4679C816.019 63.4116 819.111 60.1006 822.912 57.5622C826.662 54.9271 830.884 52.9955 835.558 51.7581C840.198 50.5298 844.971 49.9169 849.872 49.9169C856.941 49.9169 863.811 51.1411 870.47 53.5864C877.346 56.0629 882.865 59.8813 886.937 65.0767L888.099 66.5598L869.697 82.8391ZM824.043 59.2123C820.493 61.5783 817.602 64.6673 815.367 68.4793C813.264 72.2913 812.212 76.8262 812.212 82.0841C812.212 86.5533 813.001 90.2996 814.578 93.3229C816.156 96.3461 818.259 98.9094 820.888 101.013C823.517 102.984 826.474 104.627 829.761 105.942C833.178 107.125 836.662 108.111 840.211 108.899C847.44 110.608 852.83 112.317 856.379 114.026C860.059 115.735 861.899 118.561 861.899 122.504C861.899 124.607 861.439 126.382 860.519 127.828C859.599 129.274 858.35 130.457 856.773 131.377C855.327 132.166 853.684 132.757 851.844 133.151C850.135 133.546 848.426 133.743 846.717 133.743C841.591 133.743 836.924 132.626 832.718 130.391C829.163 128.502 826.171 126.191 823.742 123.457C823.298 122.956 822.872 122.442 822.465 121.913L806.889 136.503C807.05 136.679 807.213 136.852 807.377 137.025C807.673 137.335 807.973 137.641 808.278 137.942C812.636 142.249 817.957 145.647 824.24 148.136C831.206 150.765 838.37 152.08 845.731 152.08C850.858 152.08 855.787 151.488 860.519 150.305C865.383 149.254 869.589 147.479 873.138 144.982C876.819 142.484 879.711 139.264 881.814 135.32C884.048 131.245 885.166 126.316 885.166 120.532C885.166 115.932 884.245 112.054 882.405 108.899C880.565 105.613 878.133 102.919 875.11 100.815C872.218 98.5808 868.932 96.8062 865.251 95.4917C861.702 94.1773 858.153 93.1257 854.604 92.337C847.9 90.7596 842.774 89.248 839.225 87.8021C835.807 86.2247 834.098 83.5958 834.098 79.9152C834.098 76.2347 835.676 73.6057 838.83 72.0284C841.985 70.451 845.468 69.6623 849.28 69.6623C853.618 69.6623 857.627 70.7139 861.308 72.8171C864.288 74.4137 866.751 76.2688 868.697 78.3826C869.155 78.8792 869.583 79.3901 869.983 79.9152L885.363 66.3104C881.551 61.4469 876.359 57.8321 869.786 55.466C863.345 53.1 856.707 51.9169 849.872 51.9169C845.14 51.9169 840.539 52.5084 836.07 53.6915C831.601 54.8745 827.592 56.7148 824.043 59.2123Z" fill="#131415"/>
<path d="M148.421 41.5821C148.421 57.8096 135.195 70.965 118.88 70.965C102.565 70.965 89.3386 57.8096 89.3386 41.5821C89.3386 25.3544 102.565 12.1992 118.88 12.1992C135.195 12.1992 148.421 25.3544 148.421 41.5821Z" fill="url(#paint0_linear_1776_26)"/>
<path d="M758.628 135.517C758.628 131.311 760.14 127.696 763.163 124.673C766.318 121.65 770.064 120.138 774.402 120.138C778.608 120.138 782.289 121.584 785.444 124.476C788.598 127.368 790.176 130.917 790.176 135.123C790.176 139.329 788.598 142.944 785.444 145.967C782.42 148.991 778.74 150.502 774.402 150.502C772.299 150.502 770.261 150.108 768.29 149.319C766.449 148.531 764.806 147.479 763.36 146.165C761.914 144.85 760.731 143.273 759.811 141.433C759.023 139.592 758.628 137.621 758.628 135.517Z" fill="#131415"/>
<path d="M907.683 149.319H933.786V102.121C933.786 81.4717 942.88 72.0321 956.721 72.0321C967.595 72.0321 976.097 80.095 976.097 93.2713V149.319H1002V87.9614C1002 63.9689 984.203 48.2361 963.642 48.2361C951.389 48.2361 941.389 51.8945 933.736 58.2058V0.25769H907.683V149.319Z" fill="#131415"/>
<defs>
<linearGradient id="paint0_linear_1776_26" x1="89.5139" y1="40.8439" x2="149.668" y2="40.8439" gradientUnits="userSpaceOnUse">
<stop stop-color="#19AEFF"/>
<stop offset="1" stop-color="#015CD5"/>
</linearGradient>
</defs>
</svg>
