<?xml version="1.0" encoding="UTF-8" standalone="no"?>
<!-- Created with Inkscape (http://www.inkscape.org/) -->
<svg
   xmlns:svg="http://www.w3.org/2000/svg"
   xmlns="http://www.w3.org/2000/svg"
   version="1.0"
   width="743.36707"
   height="368.43945"
   id="svg1978">
  <defs
     id="defs1980">
  
  
 
   
   
  
    
    
    
    
    
    
    
    
    
    
    
   </defs>
  <g
     transform="translate(-446.7987,535.9143)"
     id="layer1">
    <path
       d="M 446.79872,-168.02763 L 822.11906,-168.02763 L 1190.1658,-535.9143 L 446.79872,-535.9143 L 446.79872,-168.02763"
       style="fill:#014185;fill-rule:nonzero;stroke:none"
       id="path25030" />
    <path
       d="M 887.58191,-466.77099 L 814.84541,-466.78553 L 814.84541,-292.77073 L 750.83729,-466.78553 L 688.2839,-466.78553 L 633.00416,-321.25434 C 627.18524,-357.91354 589.36226,-370.58424 558.81293,-380.06908 C 539.90144,-386.4408 518.08049,-395.80926 519.53522,-406.05056 C 519.53522,-414.54618 529.71833,-422.34353 551.53928,-421.17975 C 566.08658,-420.43784 579.17915,-419.23041 605.36429,-406.74883 L 631.54943,-451.07445 C 606.81902,-463.06142 574.81496,-470.64057 548.62982,-470.66966 L 548.62982,-470.66966 C 516.62576,-470.66966 490.44062,-460.60293 474.43859,-443.91718 C 464.25548,-432.30843 456.98183,-417.57202 456.98183,-401.2354 C 456.98183,-378.75982 465.71021,-362.81598 481.71224,-350.11619 C 497.71427,-339.42392 515.17103,-332.45577 532.62779,-327.34966 C 552.99401,-321.05068 568.99604,-315.59544 568.99604,-303.89942 C 568.99604,-299.57887 567.54131,-295.6511 564.63185,-292.49433 C 558.81293,-287.27185 551.53928,-285.29342 539.90144,-285.04611 C 519.53522,-284.66789 504.98792,-287.91193 480.25751,-302.3574 L 456.98183,-257.47898 C 481.71224,-243.57176 510.80684,-235.39618 539.90144,-235.39618 L 544.26563,-235.42527 C 568.99604,-235.89079 590.81699,-243.23717 606.81902,-256.5916 C 608.27375,-257.37715 608.27375,-258.10452 609.72848,-258.83188 L 602.45483,-239.29486 L 669.37241,-239.29486 L 679.55552,-273.16097 C 691.19336,-269.26229 704.28593,-266.99292 718.83323,-266.99292 C 733.38053,-266.99292 745.01837,-269.18956 756.65621,-272.88457 L 768.29405,-239.29486 L 875.94407,-239.29486 L 875.94407,-309.54377 L 900.67448,-309.54377 C 957.40895,-309.54377 990.86774,-338.65292 990.86774,-387.47365 C 990.86774,-441.82237 958.86368,-466.77099 887.58191,-466.77099 z M 718.83323,-317.79209 C 710.10485,-317.79209 702.8312,-319.30501 695.55755,-321.95261 L 718.83323,-395.15463 L 718.83323,-395.15463 L 742.10891,-321.71986 C 734.83526,-319.21772 727.56161,-317.79209 718.83323,-317.79209 z M 891.9461,-359.89197 L 875.94407,-359.89197 L 875.94407,-418.91037 L 891.9461,-418.91037 C 913.76705,-418.91037 931.22381,-411.76765 931.22381,-389.69939 C 931.22381,-367.0056 913.76705,-359.89197 891.9461,-359.89197"
       style="fill:white;fill-rule:evenodd;stroke:none"
       id="path25032" />
    <path
       d="M 913.76705,-191.53607 C 913.76705,-202.78113 922.49543,-211.34949 932.67854,-211.34949 C 942.86165,-211.34949 951.59003,-202.78113 951.59003,-191.53607 C 951.59003,-179.86914 942.86165,-171.4608 932.67854,-171.4608 C 922.49543,-171.4608 913.76705,-179.86914 913.76705,-191.53607 z M 932.67854,-167.47484 C 945.77111,-167.47484 957.40895,-177.67249 957.40895,-191.53607 C 957.40895,-205.19599 945.77111,-215.23362 932.67854,-215.23362 C 919.58597,-215.23362 907.94813,-205.19599 907.94813,-191.53607 C 907.94813,-177.67249 919.58597,-167.47484 932.67854,-167.47484 z M 928.31435,-189.54309 L 932.67854,-189.54309 L 939.95219,-177.67249 L 944.31638,-177.67249 L 937.04273,-189.77585 C 939.95219,-190.27046 944.31638,-192.40891 944.31638,-197.2968 C 944.31638,-202.78113 939.95219,-205.19599 934.13327,-205.19599 L 923.95016,-205.19599 L 923.95016,-177.67249 L 928.31435,-177.67249 L 928.31435,-189.54309 z M 928.31435,-193.09263 L 928.31435,-201.69009 L 934.13327,-201.69009 C 935.588,-201.69009 939.95219,-201.02091 939.95219,-197.54411 C 939.95219,-193.36903 935.588,-193.09263 932.67854,-193.09263 L 928.31435,-193.09263"
       style="fill:#014185;fill-rule:nonzero;stroke:none"
       id="path25034" />
  </g>
</svg>
